<?xml version="1.0" encoding="utf-8"?>
<!-- Generator: Adobe Illustrator 27.9.0, SVG Export Plug-In . SVG Version: 6.00 Build 0)  -->
<svg version="1.1" id="Layer_1" xmlns="http://www.w3.org/2000/svg" xmlns:xlink="http://www.w3.org/1999/xlink" x="0px" y="0px"
	 viewBox="0 0 792 612" style="enable-background:new 0 0 792 612;" xml:space="preserve">
<style type="text/css">
	.st0{fill:#FFFFFF;}
</style>
<g>
	<path class="st0" d="M713.52,0L78.48,0C58.88,0,43,15.88,43,35.48v0c0,19.59,15.88,35.48,35.48,35.48h635.05
		c19.59,0,35.48-15.88,35.48-35.48v0C749,15.88,733.12,0,713.52,0z"/>
	<path class="st0" d="M713.52,277H78.48C58.88,277,43,292.88,43,312.48v0c0,19.59,15.88,35.48,35.48,35.48h635.05
		c19.59,0,35.48-15.88,35.48-35.48v0C749,292.88,733.12,277,713.52,277z"/>
	<path class="st0" d="M713.52,541.05H78.48c-19.59,0-35.48,15.88-35.48,35.48v0C43,596.12,58.88,612,78.48,612h635.05
		c19.59,0,35.48-15.88,35.48-35.48v0C749,556.93,733.12,541.05,713.52,541.05z"/>
</g>
</svg>
