<?xml version="1.0" encoding="utf-8"?>
<!-- Generator: Adobe Illustrator 27.9.0, SVG Export Plug-In . SVG Version: 6.00 Build 0)  -->
<svg version="1.1" id="Layer_1" xmlns="http://www.w3.org/2000/svg" xmlns:xlink="http://www.w3.org/1999/xlink" x="0px" y="0px"
	 viewBox="0 0 640 640" style="enable-background:new 0 0 640 640;" xml:space="preserve">
<style type="text/css">
	.st0{fill:none;stroke:#FFFFFF;stroke-width:62;stroke-miterlimit:10;}
</style>
<circle class="st0" cx="320" cy="320.01" r="286.47"/>
<line class="st0" x1="33.53" y1="320.01" x2="606.47" y2="320.01"/>
<polyline class="st0" points="320,33.86 320,33.55 320,33.11 "/>
<polyline class="st0" points="320,606.4 320,606.48 320,607.15 "/>
<path class="st0" d="M319.13,33.49c0.04,0.02,0.08,0.04,0.12,0.07c0.18,0.09,0.37,0.2,0.55,0.3
	c82.1,46.64,139.83,157.19,139.87,286.15c0,0.04,0,0.08,0,0.12c0,129.01-57.74,239.62-139.87,286.27c-0.05,0.04-0.1,0.06-0.14,0.08
	c-0.17,0.11-0.34,0.2-0.52,0.3"/>
<path class="st0" d="M320,606.77c-0.18-0.1-0.35-0.19-0.52-0.3c-0.05-0.02-0.1-0.04-0.14-0.08
	c-82.13-46.65-139.87-157.26-139.87-286.27c0-0.04,0-0.08,0-0.12c0.03-128.96,57.77-239.51,139.87-286.15
	c0.18-0.11,0.36-0.21,0.55-0.3c0.03-0.03,0.08-0.05,0.12-0.07"/>
</svg>
